  0
SECTION
  2
HEADER
  9
$ANGBASE
  50
0.0
  9
$ANGDIR
  70
1
  9
$MEASUREMENT
  70
1
  0
ENDSEC
  0
SECTION
  2
TABLES
  0
TABLE
  2
LTYPE
  70
4
  0
LTYPE
  5
40F
  2
CONTINUOUS
  70
0
  3
Solid line
  72
65
  73
0
  40
0.0
  0
LTYPE
  5
410
  2
DASHDOT
 70
0
  3
Dash Dot ____ _ ____ _
 72
65
 73
4
 40
2.0
 49
1.25
 49
-0.25
 49
0.25
 49
-0.25
  0
LTYPE
  5
411
  2
DASHED
 70
0
  3
Dashed __ __ __ __ __
 72
65
 73
2
 40
0.75
 49
0.5
 49
-0.25
  0
LTYPE
  5
43B
  2
DOTTED
 70
0
  3
Dotted .  .  .  .
 72
65
 73
2
 40
0.2
 49
0.0
 49
-0.2
  0
ENDTAB
  0
TABLE
  2
STYLE
  70
4
  0
STYLE
  2
KICAD
  70
0
  40
0
  41
1
  42
1
  50
0
  71
0
  3
isocp.shx
  0
STYLE
  2
KICADB
  70
0
  40
0
  41
1
  42
1
  50
0
  71
0
  3
isocp.shx
  0
STYLE
  2
KICADI
  70
0
  40
0
  41
1
  42
1
  50
15
  71
0
  3
isocp.shx
  0
STYLE
  2
KICADBI
  70
0
  40
0
  41
1
  42
1
  50
15
  71
0
  3
isocp.shx
  0
ENDTAB
  0
TABLE
  2
LAYER
  70
1
  0
LAYER
  2
BLACK
  70
0
  62
7
  6
CONTINUOUS
  0
ENDTAB
  0
ENDSEC
  0
SECTION
  2
ENTITIES
0
LINE
8
BLACK
6
CONTINUOUS
10
60.6749
20
-92.0544
11
60.6783
21
-92.0572
0
LINE
8
BLACK
6
CONTINUOUS
10
60.6783
20
-92.0572
11
60.6828
21
-92.0578
0
LINE
8
BLACK
6
CONTINUOUS
10
60.6828
20
-92.0578
11
60.7495
21
-92.0911
0
LINE
8
BLACK
6
CONTINUOUS
10
60.7495
20
-92.0911
11
60.7675
21
-92.1044
0
LINE
8
BLACK
6
CONTINUOUS
10
60.7675
20
-92.1044
11
60.7689
21
-92.1051
0
LINE
8
BLACK
6
CONTINUOUS
10
60.7689
20
-92.1051
11
60.8023
21
-92.1385
0
LINE
8
BLACK
6
CONTINUOUS
10
60.8023
20
-92.1385
11
60.8151
21
-92.1568
0
LINE
8
BLACK
6
CONTINUOUS
10
60.8151
20
-92.1568
11
60.8163
21
-92.158
0
LINE
8
BLACK
6
CONTINUOUS
10
60.8163
20
-92.158
11
60.8497
21
-92.2246
0
LINE
8
BLACK
6
CONTINUOUS
10
60.8497
20
-92.2246
11
60.8571
21
-92.2496
0
LINE
8
BLACK
6
CONTINUOUS
10
60.8571
20
-92.2496
11
60.856
21
-92.254
0
LINE
8
BLACK
6
CONTINUOUS
10
60.856
20
-92.254
11
60.8576
21
-92.2582
0
LINE
8
BLACK
6
CONTINUOUS
10
60.8576
20
-92.2582
11
60.8576
21
-92.3915
0
LINE
8
BLACK
6
CONTINUOUS
10
60.8576
20
-92.3915
11
60.8531
21
-92.4172
0
LINE
8
BLACK
6
CONTINUOUS
10
60.8531
20
-92.4172
11
60.8502
21
-92.4206
0
LINE
8
BLACK
6
CONTINUOUS
10
60.8502
20
-92.4206
11
60.8497
21
-92.425
0
LINE
8
BLACK
6
CONTINUOUS
10
60.8497
20
-92.425
11
60.8163
21
-92.4917
0
LINE
8
BLACK
6
CONTINUOUS
10
60.8163
20
-92.4917
11
60.803
21
-92.5097
0
LINE
8
BLACK
6
CONTINUOUS
10
60.803
20
-92.5097
11
60.8023
21
-92.5112
0
LINE
8
BLACK
6
CONTINUOUS
10
60.8023
20
-92.5112
11
60.7689
21
-92.5445
0
LINE
8
BLACK
6
CONTINUOUS
10
60.7689
20
-92.5445
11
60.7506
21
-92.5574
0
LINE
8
BLACK
6
CONTINUOUS
10
60.7506
20
-92.5574
11
60.7495
21
-92.5586
0
LINE
8
BLACK
6
CONTINUOUS
10
60.7495
20
-92.5586
11
60.6828
21
-92.5919
0
LINE
8
BLACK
6
CONTINUOUS
10
60.6828
20
-92.5919
11
60.6578
21
-92.5993
0
LINE
8
BLACK
6
CONTINUOUS
10
60.6578
20
-92.5993
11
60.6535
21
-92.5983
0
LINE
8
BLACK
6
CONTINUOUS
10
60.6535
20
-92.5983
11
60.6492
21
-92.5998
0
LINE
8
BLACK
6
CONTINUOUS
10
60.6492
20
-92.5998
11
60.0826
21
-92.5998
0
LINE
8
BLACK
6
CONTINUOUS
10
60.0826
20
-92.5998
11
60.0569
21
-92.5953
0
LINE
8
BLACK
6
CONTINUOUS
10
60.0569
20
-92.5953
11
60.0176
21
-92.5623
0
LINE
8
BLACK
6
CONTINUOUS
10
60.0176
20
-92.5623
11
60.0087
21
-92.5118
0
LINE
8
BLACK
6
CONTINUOUS
10
60.0087
20
-92.5118
11
60.0344
21
-92.4674
0
LINE
8
BLACK
6
CONTINUOUS
10
60.0344
20
-92.4674
11
60.0826
21
-92.4498
0
LINE
8
BLACK
6
CONTINUOUS
10
60.0826
20
-92.4498
11
60.6315
21
-92.4498
0
LINE
8
BLACK
6
CONTINUOUS
10
60.6315
20
-92.4498
11
60.6715
21
-92.4299
0
LINE
8
BLACK
6
CONTINUOUS
10
60.6715
20
-92.4299
11
60.6876
21
-92.4137
0
LINE
8
BLACK
6
CONTINUOUS
10
60.6876
20
-92.4137
11
60.7076
21
-92.3738
0
LINE
8
BLACK
6
CONTINUOUS
10
60.7076
20
-92.3738
11
60.7076
21
-92.2759
0
LINE
8
BLACK
6
CONTINUOUS
10
60.7076
20
-92.2759
11
60.6876
21
-92.2359
0
LINE
8
BLACK
6
CONTINUOUS
10
60.6876
20
-92.2359
11
60.6715
21
-92.2198
0
LINE
8
BLACK
6
CONTINUOUS
10
60.6715
20
-92.2198
11
60.6315
21
-92.1998
0
LINE
8
BLACK
6
CONTINUOUS
10
60.6315
20
-92.1998
11
60.0826
21
-92.1998
0
LINE
8
BLACK
6
CONTINUOUS
10
60.0826
20
-92.1998
11
60.0569
21
-92.1953
0
LINE
8
BLACK
6
CONTINUOUS
10
60.0569
20
-92.1953
11
60.0176
21
-92.1623
0
LINE
8
BLACK
6
CONTINUOUS
10
60.0176
20
-92.1623
11
60.0087
21
-92.1118
0
LINE
8
BLACK
6
CONTINUOUS
10
60.0087
20
-92.1118
11
60.0344
21
-92.0674
0
LINE
8
BLACK
6
CONTINUOUS
10
60.0344
20
-92.0674
11
60.0826
21
-92.0498
0
LINE
8
BLACK
6
CONTINUOUS
10
60.0826
20
-92.0498
11
60.6492
21
-92.0498
0
LINE
8
BLACK
6
CONTINUOUS
10
60.6492
20
-92.0498
11
60.6749
21
-92.0544
0
LINE
8
BLACK
6
CONTINUOUS
10
60.84
20
-91.3766
11
60.8576
21
-91.4248
0
LINE
8
BLACK
6
CONTINUOUS
10
60.8576
20
-91.4248
11
60.8576
21
-91.8248
0
LINE
8
BLACK
6
CONTINUOUS
10
60.8576
20
-91.8248
11
60.8531
21
-91.8505
0
LINE
8
BLACK
6
CONTINUOUS
10
60.8531
20
-91.8505
11
60.8201
21
-91.8898
0
LINE
8
BLACK
6
CONTINUOUS
10
60.8201
20
-91.8898
11
60.7696
21
-91.8987
0
LINE
8
BLACK
6
CONTINUOUS
10
60.7696
20
-91.8987
11
60.7251
21
-91.873
0
LINE
8
BLACK
6
CONTINUOUS
10
60.7251
20
-91.873
11
60.7076
21
-91.8248
0
LINE
8
BLACK
6
CONTINUOUS
10
60.7076
20
-91.8248
11
60.7076
21
-91.6998
0
LINE
8
BLACK
6
CONTINUOUS
10
60.7076
20
-91.6998
11
60.297
21
-91.6998
0
LINE
8
BLACK
6
CONTINUOUS
10
60.297
20
-91.6998
11
60.3023
21
-91.7051
0
LINE
8
BLACK
6
CONTINUOUS
10
60.3023
20
-91.7051
11
60.3151
21
-91.7235
0
LINE
8
BLACK
6
CONTINUOUS
10
60.3151
20
-91.7235
11
60.3163
21
-91.7246
0
LINE
8
BLACK
6
CONTINUOUS
10
60.3163
20
-91.7246
11
60.3497
21
-91.7913
0
LINE
8
BLACK
6
CONTINUOUS
10
60.3497
20
-91.7913
11
60.3571
21
-91.8163
0
LINE
8
BLACK
6
CONTINUOUS
10
60.3571
20
-91.8163
11
60.3452
21
-91.8662
0
LINE
8
BLACK
6
CONTINUOUS
10
60.3452
20
-91.8662
11
60.304
21
-91.8967
0
LINE
8
BLACK
6
CONTINUOUS
10
60.304
20
-91.8967
11
60.2528
21
-91.8936
0
LINE
8
BLACK
6
CONTINUOUS
10
60.2528
20
-91.8936
11
60.2155
21
-91.8584
0
LINE
8
BLACK
6
CONTINUOUS
10
60.2155
20
-91.8584
11
60.1876
21
-91.8026
0
LINE
8
BLACK
6
CONTINUOUS
10
60.1876
20
-91.8026
11
60.1348
21
-91.7498
0
LINE
8
BLACK
6
CONTINUOUS
10
60.1348
20
-91.7498
11
60.041
21
-91.6872
0
LINE
8
BLACK
6
CONTINUOUS
10
60.041
20
-91.6872
11
60.0221
21
-91.6692
0
LINE
8
BLACK
6
CONTINUOUS
10
60.0221
20
-91.6692
11
60.0209
21
-91.6651
0
LINE
8
BLACK
6
CONTINUOUS
10
60.0209
20
-91.6651
11
60.0176
21
-91.6623
0
LINE
8
BLACK
6
CONTINUOUS
10
60.0176
20
-91.6623
11
60.0139
21
-91.6409
0
LINE
8
BLACK
6
CONTINUOUS
10
60.0139
20
-91.6409
11
60.0077
21
-91.62
0
LINE
8
BLACK
6
CONTINUOUS
10
60.0077
20
-91.62
11
60.0095
21
-91.6161
0
LINE
8
BLACK
6
CONTINUOUS
10
60.0095
20
-91.6161
11
60.0087
21
-91.6118
0
LINE
8
BLACK
6
CONTINUOUS
10
60.0087
20
-91.6118
11
60.0196
21
-91.593
0
LINE
8
BLACK
6
CONTINUOUS
10
60.0196
20
-91.593
11
60.0284
21
-91.573
0
LINE
8
BLACK
6
CONTINUOUS
10
60.0284
20
-91.573
11
60.0322
21
-91.5711
0
LINE
8
BLACK
6
CONTINUOUS
10
60.0322
20
-91.5711
11
60.0344
21
-91.5674
0
LINE
8
BLACK
6
CONTINUOUS
10
60.0344
20
-91.5674
11
60.0548
21
-91.5599
0
LINE
8
BLACK
6
CONTINUOUS
10
60.0548
20
-91.5599
11
60.0743
21
-91.5503
0
LINE
8
BLACK
6
CONTINUOUS
10
60.0743
20
-91.5503
11
60.0785
21
-91.5513
0
LINE
8
BLACK
6
CONTINUOUS
10
60.0785
20
-91.5513
11
60.0826
21
-91.5498
0
LINE
8
BLACK
6
CONTINUOUS
10
60.0826
20
-91.5498
11
60.7076
21
-91.5498
0
LINE
8
BLACK
6
CONTINUOUS
10
60.7076
20
-91.5498
11
60.7076
21
-91.4248
0
LINE
8
BLACK
6
CONTINUOUS
10
60.7076
20
-91.4248
11
60.7121
21
-91.3992
0
LINE
8
BLACK
6
CONTINUOUS
10
60.7121
20
-91.3992
11
60.7451
21
-91.3599
0
LINE
8
BLACK
6
CONTINUOUS
10
60.7451
20
-91.3599
11
60.7956
21
-91.351
0
LINE
8
BLACK
6
CONTINUOUS
10
60.7956
20
-91.351
11
60.84
21
-91.3766
0
LINE
8
BLACK
6
CONTINUOUS
10
82.3892
20
-83.4625
11
82.4342
21
-83.4811
0
LINE
8
BLACK
6
CONTINUOUS
10
82.4342
20
-83.4811
11
82.4527
21
-83.526
0
LINE
8
BLACK
6
CONTINUOUS
10
82.4527
20
-83.526
11
82.4527
21
-101.326
0
LINE
8
BLACK
6
CONTINUOUS
10
82.4527
20
-101.326
11
82.4342
21
-101.371
0
LINE
8
BLACK
6
CONTINUOUS
10
82.4342
20
-101.371
11
82.3892
21
-101.389
0
LINE
8
BLACK
6
CONTINUOUS
10
82.3892
20
-101.389
11
61.9108
21
-101.389
0
LINE
8
BLACK
6
CONTINUOUS
10
61.9108
20
-101.389
11
61.8658
21
-101.371
0
LINE
8
BLACK
6
CONTINUOUS
10
61.8658
20
-101.371
11
61.8658
21
-101.371
0
LINE
8
BLACK
6
CONTINUOUS
10
61.8658
20
-101.371
11
61.8658
21
-101.371
0
LINE
8
BLACK
6
CONTINUOUS
10
61.8658
20
-101.371
11
61.1943
21
-100.699
0
LINE
8
BLACK
6
CONTINUOUS
10
61.1943
20
-100.699
11
61.1821
21
-100.67
0
LINE
8
BLACK
6
CONTINUOUS
10
61.1821
20
-100.67
11
61.1758
21
-100.654
0
LINE
8
BLACK
6
CONTINUOUS
10
61.1758
20
-100.654
11
61.1758
21
-96.9935
0
LINE
8
BLACK
6
CONTINUOUS
10
61.1758
20
-96.9935
11
59.8142
21
-96.9935
0
LINE
8
BLACK
6
CONTINUOUS
10
59.8142
20
-96.9935
11
59.7693
21
-96.9749
0
LINE
8
BLACK
6
CONTINUOUS
10
59.7693
20
-96.9749
11
59.7507
21
-96.93
0
LINE
8
BLACK
6
CONTINUOUS
10
59.7507
20
-96.93
11
59.7521
21
-96.9268
0
LINE
8
BLACK
6
CONTINUOUS
10
59.7521
20
-96.9268
11
59.7517
21
-96.926
0
LINE
8
BLACK
6
CONTINUOUS
10
59.7517
20
-96.926
11
59.7517
21
-87.931
0
LINE
8
BLACK
6
CONTINUOUS
10
59.7517
20
-87.931
11
59.7703
21
-87.8861
0
LINE
8
BLACK
6
CONTINUOUS
10
59.7703
20
-87.8861
11
59.8152
21
-87.8675
0
LINE
8
BLACK
6
CONTINUOUS
10
59.8152
20
-87.8675
11
61.1758
21
-87.8675
0
LINE
8
BLACK
6
CONTINUOUS
10
61.1758
20
-87.8675
11
61.1758
21
-83.526
0
LINE
8
BLACK
6
CONTINUOUS
10
61.1758
20
-83.526
11
61.1943
21
-83.4811
0
LINE
8
BLACK
6
CONTINUOUS
10
61.1943
20
-83.4811
11
61.2392
21
-83.4625
0
LINE
8
BLACK
6
CONTINUOUS
10
61.2392
20
-83.4625
11
82.3892
21
-83.4625
0
LINE
8
BLACK
6
CONTINUOUS
10
61.3027
20
-83.5895
11
61.3027
21
-87.8675
0
LINE
8
BLACK
6
CONTINUOUS
10
61.3027
20
-87.8675
11
67.1672
21
-87.8675
0
LINE
8
BLACK
6
CONTINUOUS
10
67.1672
20
-87.8675
11
67.2122
21
-87.8861
0
LINE
8
BLACK
6
CONTINUOUS
10
67.2122
20
-87.8861
11
67.2308
21
-87.931
0
LINE
8
BLACK
6
CONTINUOUS
10
67.2308
20
-87.931
11
67.2308
21
-96.93
0
LINE
8
BLACK
6
CONTINUOUS
10
67.2308
20
-96.93
11
67.2122
21
-96.9749
0
LINE
8
BLACK
6
CONTINUOUS
10
67.2122
20
-96.9749
11
67.1672
21
-96.9935
0
LINE
8
BLACK
6
CONTINUOUS
10
67.1672
20
-96.9935
11
61.3027
21
-96.9935
0
LINE
8
BLACK
6
CONTINUOUS
10
61.3027
20
-96.9935
11
61.3027
21
-100.628
0
LINE
8
BLACK
6
CONTINUOUS
10
61.3027
20
-100.628
11
61.9371
21
-101.262
0
LINE
8
BLACK
6
CONTINUOUS
10
61.9371
20
-101.262
11
82.3257
21
-101.262
0
LINE
8
BLACK
6
CONTINUOUS
10
82.3257
20
-101.262
11
82.3257
21
-83.5895
0
LINE
8
BLACK
6
CONTINUOUS
10
82.3257
20
-83.5895
11
61.3027
21
-83.5895
0
LINE
8
BLACK
6
CONTINUOUS
10
59.8787
20
-87.9945
11
59.8787
21
-96.8665
0
LINE
8
BLACK
6
CONTINUOUS
10
59.8787
20
-96.8665
11
61.1758
21
-96.8665
0
LINE
8
BLACK
6
CONTINUOUS
10
61.1758
20
-96.8665
11
61.1758
21
-87.9945
0
LINE
8
BLACK
6
CONTINUOUS
10
61.1758
20
-87.9945
11
59.8787
21
-87.9945
0
LINE
8
BLACK
6
CONTINUOUS
10
61.3027
20
-87.9945
11
61.3027
21
-96.8665
0
LINE
8
BLACK
6
CONTINUOUS
10
61.3027
20
-96.8665
11
67.1037
21
-96.8665
0
LINE
8
BLACK
6
CONTINUOUS
10
67.1037
20
-96.8665
11
67.1037
21
-87.9945
0
LINE
8
BLACK
6
CONTINUOUS
10
67.1037
20
-87.9945
11
61.3027
21
-87.9945
0
LINE
8
BLACK
6
CONTINUOUS
10
90.1122
20
-100.25
11
90.1156
21
-100.253
0
LINE
8
BLACK
6
CONTINUOUS
10
90.1156
20
-100.253
11
90.1201
21
-100.253
0
LINE
8
BLACK
6
CONTINUOUS
10
90.1201
20
-100.253
11
90.2153
21
-100.301
0
LINE
8
BLACK
6
CONTINUOUS
10
90.2153
20
-100.301
11
90.2333
21
-100.314
0
LINE
8
BLACK
6
CONTINUOUS
10
90.2333
20
-100.314
11
90.2348
21
-100.315
0
LINE
8
BLACK
6
CONTINUOUS
10
90.2348
20
-100.315
11
90.2824
21
-100.363
0
LINE
8
BLACK
6
CONTINUOUS
10
90.2824
20
-100.363
11
90.2953
21
-100.381
0
LINE
8
BLACK
6
CONTINUOUS
10
90.2953
20
-100.381
11
90.2965
21
-100.382
0
LINE
8
BLACK
6
CONTINUOUS
10
90.2965
20
-100.382
11
90.3441
21
-100.477
0
LINE
8
BLACK
6
CONTINUOUS
10
90.3441
20
-100.477
11
90.3515
21
-100.502
0
LINE
8
BLACK
6
CONTINUOUS
10
90.3515
20
-100.502
11
90.3505
21
-100.507
0
LINE
8
BLACK
6
CONTINUOUS
10
90.3505
20
-100.507
11
90.352
21
-100.511
0
LINE
8
BLACK
6
CONTINUOUS
10
90.352
20
-100.511
11
90.352
21
-100.749
0
LINE
8
BLACK
6
CONTINUOUS
10
90.352
20
-100.749
11
90.3475
21
-100.775
0
LINE
8
BLACK
6
CONTINUOUS
10
90.3475
20
-100.775
11
90.3446
21
-100.778
0
LINE
8
BLACK
6
CONTINUOUS
10
90.3446
20
-100.778
11
90.3441
21
-100.783
0
LINE
8
BLACK
6
CONTINUOUS
10
90.3441
20
-100.783
11
90.2965
21
-100.878
0
LINE
8
BLACK
6
CONTINUOUS
10
90.2965
20
-100.878
11
90.2831
21
-100.896
0
LINE
8
BLACK
6
CONTINUOUS
10
90.2831
20
-100.896
11
90.2824
21
-100.897
0
LINE
8
BLACK
6
CONTINUOUS
10
90.2824
20
-100.897
11
90.2348
21
-100.945
0
LINE
8
BLACK
6
CONTINUOUS
10
90.2348
20
-100.945
11
90.2135
21
-100.96
0
LINE
8
BLACK
6
CONTINUOUS
10
90.2135
20
-100.96
11
90.1624
21
-100.964
0
LINE
8
BLACK
6
CONTINUOUS
10
90.1624
20
-100.964
11
90.1203
21
-100.935
0
LINE
8
BLACK
6
CONTINUOUS
10
90.1203
20
-100.935
11
90.1071
21
-100.885
0
LINE
8
BLACK
6
CONTINUOUS
10
90.1071
20
-100.885
11
90.1287
21
-100.839
0
LINE
8
BLACK
6
CONTINUOUS
10
90.1287
20
-100.839
11
90.1678
21
-100.8
0
LINE
8
BLACK
6
CONTINUOUS
10
90.1678
20
-100.8
11
90.202
21
-100.731
0
LINE
8
BLACK
6
CONTINUOUS
10
90.202
20
-100.731
11
90.202
21
-100.529
0
LINE
8
BLACK
6
CONTINUOUS
10
90.202
20
-100.529
11
90.1678
21
-100.46
0
LINE
8
BLACK
6
CONTINUOUS
10
90.1678
20
-100.46
11
90.1374
21
-100.43
0
LINE
8
BLACK
6
CONTINUOUS
10
90.1374
20
-100.43
11
90.0688
21
-100.395
0
LINE
8
BLACK
6
CONTINUOUS
10
90.0688
20
-100.395
11
89.8662
21
-100.395
0
LINE
8
BLACK
6
CONTINUOUS
10
89.8662
20
-100.395
11
89.7976
21
-100.43
0
LINE
8
BLACK
6
CONTINUOUS
10
89.7976
20
-100.43
11
89.7672
21
-100.46
0
LINE
8
BLACK
6
CONTINUOUS
10
89.7672
20
-100.46
11
89.733
21
-100.529
0
LINE
8
BLACK
6
CONTINUOUS
10
89.733
20
-100.529
11
89.733
21
-100.731
0
LINE
8
BLACK
6
CONTINUOUS
10
89.733
20
-100.731
11
89.7672
21
-100.8
0
LINE
8
BLACK
6
CONTINUOUS
10
89.7672
20
-100.8
11
89.8062
21
-100.839
0
LINE
8
BLACK
6
CONTINUOUS
10
89.8062
20
-100.839
11
89.8212
21
-100.86
0
LINE
8
BLACK
6
CONTINUOUS
10
89.8212
20
-100.86
11
89.8212
21
-100.861
0
LINE
8
BLACK
6
CONTINUOUS
10
89.8212
20
-100.861
11
89.8216
21
-100.861
0
LINE
8
BLACK
6
CONTINUOUS
10
89.8216
20
-100.861
11
89.8235
21
-100.886
0
LINE
8
BLACK
6
CONTINUOUS
10
89.8235
20
-100.886
11
89.8257
21
-100.911
0
LINE
8
BLACK
6
CONTINUOUS
10
89.8257
20
-100.911
11
89.8254
21
-100.912
0
LINE
8
BLACK
6
CONTINUOUS
10
89.8254
20
-100.912
11
89.8254
21
-100.912
0
LINE
8
BLACK
6
CONTINUOUS
10
89.8254
20
-100.912
11
89.8107
21
-100.933
0
LINE
8
BLACK
6
CONTINUOUS
10
89.8107
20
-100.933
11
89.7962
21
-100.953
0
LINE
8
BLACK
6
CONTINUOUS
10
89.7962
20
-100.953
11
89.7957
21
-100.953
0
LINE
8
BLACK
6
CONTINUOUS
10
89.7957
20
-100.953
11
89.7955
21
-100.954
0
LINE
8
BLACK
6
CONTINUOUS
10
89.7955
20
-100.954
11
89.771
21
-100.96
0
LINE
8
BLACK
6
CONTINUOUS
10
89.771
20
-100.96
11
89.7467
21
-100.967
0
LINE
8
BLACK
6
CONTINUOUS
10
89.7467
20
-100.967
11
89.7462
21
-100.966
0
LINE
8
BLACK
6
CONTINUOUS
10
89.7462
20
-100.966
11
89.7457
21
-100.967
0
LINE
8
BLACK
6
CONTINUOUS
10
89.7457
20
-100.967
11
89.2696
21
-100.919
0
LINE
8
BLACK
6
CONTINUOUS
10
89.2696
20
-100.919
11
89.2657
21
-100.918
0
LINE
8
BLACK
6
CONTINUOUS
10
89.2657
20
-100.918
11
89.264
21
-100.918
0
LINE
8
BLACK
6
CONTINUOUS
10
89.264
20
-100.918
11
89.2613
21
-100.917
0
LINE
8
BLACK
6
CONTINUOUS
10
89.2613
20
-100.917
11
89.2445
21
-100.912
0
LINE
8
BLACK
6
CONTINUOUS
10
89.2445
20
-100.912
11
89.2334
21
-100.9
0
LINE
8
BLACK
6
CONTINUOUS
10
89.2334
20
-100.9
11
89.2196
21
-100.892
0
LINE
8
BLACK
6
CONTINUOUS
10
89.2196
20
-100.892
11
89.216
21
-100.883
0
LINE
8
BLACK
6
CONTINUOUS
10
89.216
20
-100.883
11
89.2087
21
-100.875
0
LINE
8
BLACK
6
CONTINUOUS
10
89.2087
20
-100.875
11
89.2075
21
-100.859
0
LINE
8
BLACK
6
CONTINUOUS
10
89.2075
20
-100.859
11
89.202
21
-100.844
0
LINE
8
BLACK
6
CONTINUOUS
10
89.202
20
-100.844
11
89.202
21
-100.368
0
LINE
8
BLACK
6
CONTINUOUS
10
89.202
20
-100.368
11
89.2065
21
-100.342
0
LINE
8
BLACK
6
CONTINUOUS
10
89.2065
20
-100.342
11
89.2395
21
-100.303
0
LINE
8
BLACK
6
CONTINUOUS
10
89.2395
20
-100.303
11
89.29
21
-100.294
0
LINE
8
BLACK
6
CONTINUOUS
10
89.29
20
-100.294
11
89.3345
21
-100.32
0
LINE
8
BLACK
6
CONTINUOUS
10
89.3345
20
-100.32
11
89.352
21
-100.368
0
LINE
8
BLACK
6
CONTINUOUS
10
89.352
20
-100.368
11
89.352
21
-100.776
0
LINE
8
BLACK
6
CONTINUOUS
10
89.352
20
-100.776
11
89.6002
21
-100.801
0
LINE
8
BLACK
6
CONTINUOUS
10
89.6002
20
-100.801
11
89.5909
21
-100.783
0
LINE
8
BLACK
6
CONTINUOUS
10
89.5909
20
-100.783
11
89.5835
21
-100.758
0
LINE
8
BLACK
6
CONTINUOUS
10
89.5835
20
-100.758
11
89.5845
21
-100.753
0
LINE
8
BLACK
6
CONTINUOUS
10
89.5845
20
-100.753
11
89.583
21
-100.749
0
LINE
8
BLACK
6
CONTINUOUS
10
89.583
20
-100.749
11
89.583
21
-100.511
0
LINE
8
BLACK
6
CONTINUOUS
10
89.583
20
-100.511
11
89.5875
21
-100.485
0
LINE
8
BLACK
6
CONTINUOUS
10
89.5875
20
-100.485
11
89.5904
21
-100.482
0
LINE
8
BLACK
6
CONTINUOUS
10
89.5904
20
-100.482
11
89.5909
21
-100.477
0
LINE
8
BLACK
6
CONTINUOUS
10
89.5909
20
-100.477
11
89.6385
21
-100.382
0
LINE
8
BLACK
6
CONTINUOUS
10
89.6385
20
-100.382
11
89.6519
21
-100.364
0
LINE
8
BLACK
6
CONTINUOUS
10
89.6519
20
-100.364
11
89.6526
21
-100.363
0
LINE
8
BLACK
6
CONTINUOUS
10
89.6526
20
-100.363
11
89.7002
21
-100.315
0
LINE
8
BLACK
6
CONTINUOUS
10
89.7002
20
-100.315
11
89.7185
21
-100.302
0
LINE
8
BLACK
6
CONTINUOUS
10
89.7185
20
-100.302
11
89.7197
21
-100.301
0
LINE
8
BLACK
6
CONTINUOUS
10
89.7197
20
-100.301
11
89.8149
21
-100.253
0
LINE
8
BLACK
6
CONTINUOUS
10
89.8149
20
-100.253
11
89.8399
21
-100.246
0
LINE
8
BLACK
6
CONTINUOUS
10
89.8399
20
-100.246
11
89.8442
21
-100.247
0
LINE
8
BLACK
6
CONTINUOUS
10
89.8442
20
-100.247
11
89.8484
21
-100.245
0
LINE
8
BLACK
6
CONTINUOUS
10
89.8484
20
-100.245
11
90.0865
21
-100.245
0
LINE
8
BLACK
6
CONTINUOUS
10
90.0865
20
-100.245
11
90.1122
21
-100.25
0
LINE
8
BLACK
6
CONTINUOUS
10
90.3007
20
-99.6303
11
90.3236
21
-99.6427
0
LINE
8
BLACK
6
CONTINUOUS
10
90.3236
20
-99.6427
11
90.3248
21
-99.6445
0
LINE
8
BLACK
6
CONTINUOUS
10
90.3248
20
-99.6445
11
90.3268
21
-99.6453
0
LINE
8
BLACK
6
CONTINUOUS
10
90.3268
20
-99.6453
11
90.3381
21
-99.6662
0
LINE
8
BLACK
6
CONTINUOUS
10
90.3381
20
-99.6662
11
90.3505
21
-99.6864
0
LINE
8
BLACK
6
CONTINUOUS
10
90.3505
20
-99.6864
11
90.3502
21
-99.6885
0
LINE
8
BLACK
6
CONTINUOUS
10
90.3502
20
-99.6885
11
90.3512
21
-99.6904
0
LINE
8
BLACK
6
CONTINUOUS
10
90.3512
20
-99.6904
11
90.3464
21
-99.7137
0
LINE
8
BLACK
6
CONTINUOUS
10
90.3464
20
-99.7137
11
90.343
21
-99.7371
0
LINE
8
BLACK
6
CONTINUOUS
10
90.343
20
-99.7371
11
90.3414
21
-99.7386
0
LINE
8
BLACK
6
CONTINUOUS
10
90.3414
20
-99.7386
11
90.3409
21
-99.7407
0
LINE
8
BLACK
6
CONTINUOUS
10
90.3409
20
-99.7407
11
90.3223
21
-99.7554
0
LINE
8
BLACK
6
CONTINUOUS
10
90.3223
20
-99.7554
11
90.3046
21
-99.7712
0
LINE
8
BLACK
6
CONTINUOUS
10
90.3046
20
-99.7712
11
90.3024
21
-99.7712
0
LINE
8
BLACK
6
CONTINUOUS
10
90.3024
20
-99.7712
11
90.3007
21
-99.7726
0
LINE
8
BLACK
6
CONTINUOUS
10
90.3007
20
-99.7726
11
89.3007
21
-100.106
0
LINE
8
BLACK
6
CONTINUOUS
10
89.3007
20
-100.106
11
89.275
21
-100.11
0
LINE
8
BLACK
6
CONTINUOUS
10
89.275
20
-100.11
11
89.2273
21
-100.091
0
LINE
8
BLACK
6
CONTINUOUS
10
89.2273
20
-100.091
11
89.2028
21
-100.046
0
LINE
8
BLACK
6
CONTINUOUS
10
89.2028
20
-100.046
11
89.2131
21
-99.9955
0
LINE
8
BLACK
6
CONTINUOUS
10
89.2131
20
-99.9955
11
89.2533
21
-99.9636
0
LINE
8
BLACK
6
CONTINUOUS
10
89.2533
20
-99.9636
11
90.0398
21
-99.7014
0
LINE
8
BLACK
6
CONTINUOUS
10
90.0398
20
-99.7014
11
89.2533
21
-99.4392
0
LINE
8
BLACK
6
CONTINUOUS
10
89.2533
20
-99.4392
11
89.2304
21
-99.4268
0
LINE
8
BLACK
6
CONTINUOUS
10
89.2304
20
-99.4268
11
89.2035
21
-99.3831
0
LINE
8
BLACK
6
CONTINUOUS
10
89.2035
20
-99.3831
11
89.2111
21
-99.3324
0
LINE
8
BLACK
6
CONTINUOUS
10
89.2111
20
-99.3324
11
89.2495
21
-99.2983
0
LINE
8
BLACK
6
CONTINUOUS
10
89.2495
20
-99.2983
11
89.3007
21
-99.2969
0
LINE
8
BLACK
6
CONTINUOUS
10
89.3007
20
-99.2969
11
90.3007
21
-99.6303
0
LINE
8
BLACK
6
CONTINUOUS
10
93.6244
20
-87.57
11
93.6668
21
-87.5876
0
LINE
8
BLACK
6
CONTINUOUS
10
93.6668
20
-87.5876
11
93.6844
21
-87.63
0
LINE
8
BLACK
6
CONTINUOUS
10
93.6844
20
-87.63
11
93.6844
21
-97.79
0
LINE
8
BLACK
6
CONTINUOUS
10
93.6844
20
-97.79
11
93.6668
21
-97.8324
0
LINE
8
BLACK
6
CONTINUOUS
10
93.6668
20
-97.8324
11
93.6244
21
-97.85
0
LINE
8
BLACK
6
CONTINUOUS
10
93.6244
20
-97.85
11
87.2744
21
-97.85
0
LINE
8
BLACK
6
CONTINUOUS
10
87.2744
20
-97.85
11
86.0044
21
-97.85
0
LINE
8
BLACK
6
CONTINUOUS
10
86.0044
20
-97.85
11
85.962
21
-97.8324
0
LINE
8
BLACK
6
CONTINUOUS
10
85.962
20
-97.8324
11
85.9444
21
-97.79
0
LINE
8
BLACK
6
CONTINUOUS
10
85.9444
20
-97.79
11
85.9444
21
-87.63
0
LINE
8
BLACK
6
CONTINUOUS
10
85.9444
20
-87.63
11
85.962
21
-87.5876
0
LINE
8
BLACK
6
CONTINUOUS
10
85.962
20
-87.5876
11
86.0044
21
-87.57
0
LINE
8
BLACK
6
CONTINUOUS
10
86.0044
20
-87.57
11
93.6244
21
-87.57
0
LINE
8
BLACK
6
CONTINUOUS
10
86.0644
20
-87.69
11
86.0644
21
-97.73
0
LINE
8
BLACK
6
CONTINUOUS
10
86.0644
20
-97.73
11
87.2144
21
-97.73
0
LINE
8
BLACK
6
CONTINUOUS
10
87.2144
20
-97.73
11
87.2144
21
-87.69
0
LINE
8
BLACK
6
CONTINUOUS
10
87.2144
20
-87.69
11
86.0644
21
-87.69
0
LINE
8
BLACK
6
CONTINUOUS
10
87.3344
20
-87.69
11
87.3344
21
-97.73
0
LINE
8
BLACK
6
CONTINUOUS
10
87.3344
20
-97.73
11
93.5644
21
-97.73
0
LINE
8
BLACK
6
CONTINUOUS
10
93.5644
20
-97.73
11
93.5644
21
-87.69
0
LINE
8
BLACK
6
CONTINUOUS
10
93.5644
20
-87.69
11
87.3344
21
-87.69
0
LINE
8
BLACK
6
CONTINUOUS
10
84.5828
20
-94.5379
11
84.587
21
-94.5372
0
LINE
8
BLACK
6
CONTINUOUS
10
84.587
20
-94.5372
11
84.6059
21
-94.548
0
LINE
8
BLACK
6
CONTINUOUS
10
84.6059
20
-94.548
11
84.6258
21
-94.5568
0
LINE
8
BLACK
6
CONTINUOUS
10
84.6258
20
-94.5568
11
84.6277
21
-94.5607
0
LINE
8
BLACK
6
CONTINUOUS
10
84.6277
20
-94.5607
11
84.6315
21
-94.5628
0
LINE
8
BLACK
6
CONTINUOUS
10
84.6315
20
-94.5628
11
84.6389
21
-94.5833
0
LINE
8
BLACK
6
CONTINUOUS
10
84.6389
20
-94.5833
11
84.6485
21
-94.6028
0
LINE
8
BLACK
6
CONTINUOUS
10
84.6485
20
-94.6028
11
84.6475
21
-94.607
0
LINE
8
BLACK
6
CONTINUOUS
10
84.6475
20
-94.607
11
84.649
21
-94.611
0
LINE
8
BLACK
6
CONTINUOUS
10
84.649
20
-94.611
11
84.649
21
-95.536
0
LINE
8
BLACK
6
CONTINUOUS
10
84.649
20
-95.536
11
84.8597
21
-95.536
0
LINE
8
BLACK
6
CONTINUOUS
10
84.8597
20
-95.536
11
84.8854
21
-95.5405
0
LINE
8
BLACK
6
CONTINUOUS
10
84.8854
20
-95.5405
11
84.9247
21
-95.5735
0
LINE
8
BLACK
6
CONTINUOUS
10
84.9247
20
-95.5735
11
84.9336
21
-95.624
0
LINE
8
BLACK
6
CONTINUOUS
10
84.9336
20
-95.624
11
84.9079
21
-95.6685
0
LINE
8
BLACK
6
CONTINUOUS
10
84.9079
20
-95.6685
11
84.8597
21
-95.686
0
LINE
8
BLACK
6
CONTINUOUS
10
84.8597
20
-95.686
11
84.2883
21
-95.686
0
LINE
8
BLACK
6
CONTINUOUS
10
84.2883
20
-95.686
11
84.2626
21
-95.6815
0
LINE
8
BLACK
6
CONTINUOUS
10
84.2626
20
-95.6815
11
84.2233
21
-95.6485
0
LINE
8
BLACK
6
CONTINUOUS
10
84.2233
20
-95.6485
11
84.2144
21
-95.598
0
LINE
8
BLACK
6
CONTINUOUS
10
84.2144
20
-95.598
11
84.2401
21
-95.5536
0
LINE
8
BLACK
6
CONTINUOUS
10
84.2401
20
-95.5536
11
84.2883
21
-95.536
0
LINE
8
BLACK
6
CONTINUOUS
10
84.2883
20
-95.536
11
84.499
21
-95.536
0
LINE
8
BLACK
6
CONTINUOUS
10
84.499
20
-95.536
11
84.499
21
-94.8397
0
LINE
8
BLACK
6
CONTINUOUS
10
84.499
20
-94.8397
11
84.4366
21
-94.9021
0
LINE
8
BLACK
6
CONTINUOUS
10
84.4366
20
-94.9021
11
84.4182
21
-94.915
0
LINE
8
BLACK
6
CONTINUOUS
10
84.4182
20
-94.915
11
84.4171
21
-94.9162
0
LINE
8
BLACK
6
CONTINUOUS
10
84.4171
20
-94.9162
11
84.3218
21
-94.9638
0
LINE
8
BLACK
6
CONTINUOUS
10
84.3218
20
-94.9638
11
84.2969
21
-94.9712
0
LINE
8
BLACK
6
CONTINUOUS
10
84.2969
20
-94.9712
11
84.247
21
-94.9593
0
LINE
8
BLACK
6
CONTINUOUS
10
84.247
20
-94.9593
11
84.2164
21
-94.9181
0
LINE
8
BLACK
6
CONTINUOUS
10
84.2164
20
-94.9181
11
84.2195
21
-94.8669
0
LINE
8
BLACK
6
CONTINUOUS
10
84.2195
20
-94.8669
11
84.2547
21
-94.8297
0
LINE
8
BLACK
6
CONTINUOUS
10
84.2547
20
-94.8297
11
84.3391
21
-94.7875
0
LINE
8
BLACK
6
CONTINUOUS
10
84.3391
20
-94.7875
11
84.4205
21
-94.7061
0
LINE
8
BLACK
6
CONTINUOUS
10
84.4205
20
-94.7061
11
84.5116
21
-94.5694
0
LINE
8
BLACK
6
CONTINUOUS
10
84.5116
20
-94.5694
11
84.5296
21
-94.5506
0
LINE
8
BLACK
6
CONTINUOUS
10
84.5296
20
-94.5506
11
84.5337
21
-94.5494
0
LINE
8
BLACK
6
CONTINUOUS
10
84.5337
20
-94.5494
11
84.5365
21
-94.5461
0
LINE
8
BLACK
6
CONTINUOUS
10
84.5365
20
-94.5461
11
84.5579
21
-94.5423
0
LINE
8
BLACK
6
CONTINUOUS
10
84.5579
20
-94.5423
11
84.5788
21
-94.5362
0
LINE
8
BLACK
6
CONTINUOUS
10
84.5788
20
-94.5362
11
84.5828
21
-94.5379
0
LINE
8
BLACK
6
CONTINUOUS
10
83.5961
20
-94.5399
11
83.5977
21
-94.5399
0
LINE
8
BLACK
6
CONTINUOUS
10
83.5977
20
-94.5399
11
83.7406
21
-94.5875
0
LINE
8
BLACK
6
CONTINUOUS
10
83.7406
20
-94.5875
11
83.7635
21
-94.5999
0
LINE
8
BLACK
6
CONTINUOUS
10
83.7635
20
-94.5999
11
83.7658
21
-94.6037
0
LINE
8
BLACK
6
CONTINUOUS
10
83.7658
20
-94.6037
11
83.7699
21
-94.6056
0
LINE
8
BLACK
6
CONTINUOUS
10
83.7699
20
-94.6056
11
83.8651
21
-94.7008
0
LINE
8
BLACK
6
CONTINUOUS
10
83.8651
20
-94.7008
11
83.878
21
-94.7192
0
LINE
8
BLACK
6
CONTINUOUS
10
83.878
20
-94.7192
11
83.8792
21
-94.7203
0
LINE
8
BLACK
6
CONTINUOUS
10
83.8792
20
-94.7203
11
83.9268
21
-94.8156
0
LINE
8
BLACK
6
CONTINUOUS
10
83.9268
20
-94.8156
11
83.9305
21
-94.828
0
LINE
8
BLACK
6
CONTINUOUS
10
83.9305
20
-94.828
11
83.9325
21
-94.8309
0
LINE
8
BLACK
6
CONTINUOUS
10
83.9325
20
-94.8309
11
83.9801
21
-95.0214
0
LINE
8
BLACK
6
CONTINUOUS
10
83.9801
20
-95.0214
11
83.9811
21
-95.0363
0
LINE
8
BLACK
6
CONTINUOUS
10
83.9811
20
-95.0363
11
83.9823
21
-95.0396
0
LINE
8
BLACK
6
CONTINUOUS
10
83.9823
20
-95.0396
11
83.9823
21
-95.1824
0
LINE
8
BLACK
6
CONTINUOUS
10
83.9823
20
-95.1824
11
83.9797
21
-95.1972
0
LINE
8
BLACK
6
CONTINUOUS
10
83.9797
20
-95.1972
11
83.9801
21
-95.2006
0
LINE
8
BLACK
6
CONTINUOUS
10
83.9801
20
-95.2006
11
83.9325
21
-95.3911
0
LINE
8
BLACK
6
CONTINUOUS
10
83.9325
20
-95.3911
11
83.9272
21
-95.4029
0
LINE
8
BLACK
6
CONTINUOUS
10
83.9272
20
-95.4029
11
83.9268
21
-95.4065
0
LINE
8
BLACK
6
CONTINUOUS
10
83.9268
20
-95.4065
11
83.8792
21
-95.5017
0
LINE
8
BLACK
6
CONTINUOUS
10
83.8792
20
-95.5017
11
83.8658
21
-95.5197
0
LINE
8
BLACK
6
CONTINUOUS
10
83.8658
20
-95.5197
11
83.8651
21
-95.5212
0
LINE
8
BLACK
6
CONTINUOUS
10
83.8651
20
-95.5212
11
83.7699
21
-95.6164
0
LINE
8
BLACK
6
CONTINUOUS
10
83.7699
20
-95.6164
11
83.7486
21
-95.6314
0
LINE
8
BLACK
6
CONTINUOUS
10
83.7486
20
-95.6314
11
83.7441
21
-95.6318
0
LINE
8
BLACK
6
CONTINUOUS
10
83.7441
20
-95.6318
11
83.7406
21
-95.6346
0
LINE
8
BLACK
6
CONTINUOUS
10
83.7406
20
-95.6346
11
83.5977
21
-95.6822
0
LINE
8
BLACK
6
CONTINUOUS
10
83.5977
20
-95.6822
11
83.5755
21
-95.6855
0
LINE
8
BLACK
6
CONTINUOUS
10
83.5755
20
-95.6855
11
83.574
21
-95.686
0
LINE
8
BLACK
6
CONTINUOUS
10
83.574
20
-95.686
11
83.3359
21
-95.686
0
LINE
8
BLACK
6
CONTINUOUS
10
83.3359
20
-95.686
11
83.3262
21
-95.6843
0
LINE
8
BLACK
6
CONTINUOUS
10
83.3262
20
-95.6843
11
83.3229
21
-95.6849
0
LINE
8
BLACK
6
CONTINUOUS
10
83.3229
20
-95.6849
11
83.32
21
-95.6832
0
LINE
8
BLACK
6
CONTINUOUS
10
83.32
20
-95.6832
11
83.3103
21
-95.6815
0
LINE
8
BLACK
6
CONTINUOUS
10
83.3103
20
-95.6815
11
83.2953
21
-95.669
0
LINE
8
BLACK
6
CONTINUOUS
10
83.2953
20
-95.669
11
83.2785
21
-95.6592
0
LINE
8
BLACK
6
CONTINUOUS
10
83.2785
20
-95.6592
11
83.2761
21
-95.6529
0
LINE
8
BLACK
6
CONTINUOUS
10
83.2761
20
-95.6529
11
83.271
21
-95.6485
0
LINE
8
BLACK
6
CONTINUOUS
10
83.271
20
-95.6485
11
83.2676
21
-95.6293
0
LINE
8
BLACK
6
CONTINUOUS
10
83.2676
20
-95.6293
11
83.2609
21
-95.611
0
LINE
8
BLACK
6
CONTINUOUS
10
83.2609
20
-95.611
11
83.2609
21
-94.611
0
LINE
8
BLACK
6
CONTINUOUS
10
83.2609
20
-94.611
11
83.2626
21
-94.6013
0
LINE
8
BLACK
6
CONTINUOUS
10
83.2626
20
-94.6013
11
83.262
21
-94.598
0
LINE
8
BLACK
6
CONTINUOUS
10
83.262
20
-94.598
11
83.2637
21
-94.5951
0
LINE
8
BLACK
6
CONTINUOUS
10
83.2637
20
-94.5951
11
83.2654
21
-94.5854
0
LINE
8
BLACK
6
CONTINUOUS
10
83.2654
20
-94.5854
11
83.278
21
-94.5704
0
LINE
8
BLACK
6
CONTINUOUS
10
83.278
20
-94.5704
11
83.2877
21
-94.5536
0
LINE
8
BLACK
6
CONTINUOUS
10
83.2877
20
-94.5536
11
83.2941
21
-94.5513
0
LINE
8
BLACK
6
CONTINUOUS
10
83.2941
20
-94.5513
11
83.2984
21
-94.5461
0
LINE
8
BLACK
6
CONTINUOUS
10
83.2984
20
-94.5461
11
83.3176
21
-94.5427
0
LINE
8
BLACK
6
CONTINUOUS
10
83.3176
20
-94.5427
11
83.3359
21
-94.536
0
LINE
8
BLACK
6
CONTINUOUS
10
83.3359
20
-94.536
11
83.574
21
-94.536
0
LINE
8
BLACK
6
CONTINUOUS
10
83.574
20
-94.536
11
83.5961
21
-94.5399
0
LINE
8
BLACK
6
CONTINUOUS
10
83.4109
20
-95.536
11
83.5618
21
-95.536
0
LINE
8
BLACK
6
CONTINUOUS
10
83.5618
20
-95.536
11
83.6763
21
-95.4978
0
LINE
8
BLACK
6
CONTINUOUS
10
83.6763
20
-95.4978
11
83.7505
21
-95.4237
0
LINE
8
BLACK
6
CONTINUOUS
10
83.7505
20
-95.4237
11
83.7889
21
-95.3467
0
LINE
8
BLACK
6
CONTINUOUS
10
83.7889
20
-95.3467
11
83.8323
21
-95.1732
0
LINE
8
BLACK
6
CONTINUOUS
10
83.8323
20
-95.1732
11
83.8323
21
-95.0488
0
LINE
8
BLACK
6
CONTINUOUS
10
83.8323
20
-95.0488
11
83.7889
21
-94.8753
0
LINE
8
BLACK
6
CONTINUOUS
10
83.7889
20
-94.8753
11
83.7505
21
-94.7983
0
LINE
8
BLACK
6
CONTINUOUS
10
83.7505
20
-94.7983
11
83.6763
21
-94.7242
0
LINE
8
BLACK
6
CONTINUOUS
10
83.6763
20
-94.7242
11
83.5618
21
-94.686
0
LINE
8
BLACK
6
CONTINUOUS
10
83.5618
20
-94.686
11
83.4109
21
-94.686
0
LINE
8
BLACK
6
CONTINUOUS
10
83.4109
20
-94.686
11
83.4109
21
-95.536
0
LINE
8
BLACK
6
CONTINUOUS
10
82.9807
20
-93.2762
11
82.9998
21
-93.335
0
LINE
8
BLACK
6
CONTINUOUS
10
82.9998
20
-93.335
11
82.9998
21
-94.285
0
LINE
8
BLACK
6
CONTINUOUS
10
82.9998
20
-94.285
11
82.9807
21
-94.3438
0
LINE
8
BLACK
6
CONTINUOUS
10
82.9807
20
-94.3438
11
82.9307
21
-94.3801
0
LINE
8
BLACK
6
CONTINUOUS
10
82.9307
20
-94.3801
11
82.8689
21
-94.3801
0
LINE
8
BLACK
6
CONTINUOUS
10
82.8689
20
-94.3801
11
82.8189
21
-94.3438
0
LINE
8
BLACK
6
CONTINUOUS
10
82.8189
20
-94.3438
11
82.7998
21
-94.285
0
LINE
8
BLACK
6
CONTINUOUS
10
82.7998
20
-94.285
11
82.7998
21
-93.335
0
LINE
8
BLACK
6
CONTINUOUS
10
82.7998
20
-93.335
11
82.8189
21
-93.2762
0
LINE
8
BLACK
6
CONTINUOUS
10
82.8189
20
-93.2762
11
82.8689
21
-93.2399
0
LINE
8
BLACK
6
CONTINUOUS
10
82.8689
20
-93.2399
11
82.9307
21
-93.2399
0
LINE
8
BLACK
6
CONTINUOUS
10
82.9307
20
-93.2399
11
82.9807
21
-93.2762
0
LINE
8
BLACK
6
CONTINUOUS
10
85.1399
20
-92.3399
11
85.1557
21
-92.3399
0
LINE
8
BLACK
6
CONTINUOUS
10
85.1557
20
-92.3399
11
85.1685
21
-92.3492
0
LINE
8
BLACK
6
CONTINUOUS
10
85.1685
20
-92.3492
11
85.1836
21
-92.3541
0
LINE
8
BLACK
6
CONTINUOUS
10
85.1836
20
-92.3541
11
85.1929
21
-92.3669
0
LINE
8
BLACK
6
CONTINUOUS
10
85.1929
20
-92.3669
11
85.2057
21
-92.3762
0
LINE
8
BLACK
6
CONTINUOUS
10
85.2057
20
-92.3762
11
85.2106
21
-92.3913
0
LINE
8
BLACK
6
CONTINUOUS
10
85.2106
20
-92.3913
11
85.2199
21
-92.4041
0
LINE
8
BLACK
6
CONTINUOUS
10
85.2199
20
-92.4041
11
85.2199
21
-92.4199
0
LINE
8
BLACK
6
CONTINUOUS
10
85.2199
20
-92.4199
11
85.2248
21
-92.435
0
LINE
8
BLACK
6
CONTINUOUS
10
85.2248
20
-92.435
11
85.2248
21
-92.985
0
LINE
8
BLACK
6
CONTINUOUS
10
85.2248
20
-92.985
11
85.2199
21
-93.0001
0
LINE
8
BLACK
6
CONTINUOUS
10
85.2199
20
-93.0001
11
85.2199
21
-93.0159
0
LINE
8
BLACK
6
CONTINUOUS
10
85.2199
20
-93.0159
11
85.2106
21
-93.0287
0
LINE
8
BLACK
6
CONTINUOUS
10
85.2106
20
-93.0287
11
85.2057
21
-93.0438
0
LINE
8
BLACK
6
CONTINUOUS
10
85.2057
20
-93.0438
11
85.1929
21
-93.0531
0
LINE
8
BLACK
6
CONTINUOUS
10
85.1929
20
-93.0531
11
85.1836
21
-93.0659
0
LINE
8
BLACK
6
CONTINUOUS
10
85.1836
20
-93.0659
11
85.1685
21
-93.0708
0
LINE
8
BLACK
6
CONTINUOUS
10
85.1685
20
-93.0708
11
85.1557
21
-93.0801
0
LINE
8
BLACK
6
CONTINUOUS
10
85.1557
20
-93.0801
11
85.1399
21
-93.0801
0
LINE
8
BLACK
6
CONTINUOUS
10
85.1399
20
-93.0801
11
85.1248
21
-93.085
0
LINE
8
BLACK
6
CONTINUOUS
10
85.1248
20
-93.085
11
83.1248
21
-93.085
0
LINE
8
BLACK
6
CONTINUOUS
10
83.1248
20
-93.085
11
83.1097
21
-93.0801
0
LINE
8
BLACK
6
CONTINUOUS
10
83.1097
20
-93.0801
11
83.0939
21
-93.0801
0
LINE
8
BLACK
6
CONTINUOUS
10
83.0939
20
-93.0801
11
83.0811
21
-93.0708
0
LINE
8
BLACK
6
CONTINUOUS
10
83.0811
20
-93.0708
11
83.066
21
-93.0659
0
LINE
8
BLACK
6
CONTINUOUS
10
83.066
20
-93.0659
11
83.0567
21
-93.0531
0
LINE
8
BLACK
6
CONTINUOUS
10
83.0567
20
-93.0531
11
83.0439
21
-93.0438
0
LINE
8
BLACK
6
CONTINUOUS
10
83.0439
20
-93.0438
11
83.039
21
-93.0287
0
LINE
8
BLACK
6
CONTINUOUS
10
83.039
20
-93.0287
11
83.0297
21
-93.0159
0
LINE
8
BLACK
6
CONTINUOUS
10
83.0297
20
-93.0159
11
83.0297
21
-93.0001
0
LINE
8
BLACK
6
CONTINUOUS
10
83.0297
20
-93.0001
11
83.0248
21
-92.985
0
LINE
8
BLACK
6
CONTINUOUS
10
83.0248
20
-92.985
11
83.0248
21
-92.435
0
LINE
8
BLACK
6
CONTINUOUS
10
83.0248
20
-92.435
11
83.0297
21
-92.4199
0
LINE
8
BLACK
6
CONTINUOUS
10
83.0297
20
-92.4199
11
83.0297
21
-92.4041
0
LINE
8
BLACK
6
CONTINUOUS
10
83.0297
20
-92.4041
11
83.039
21
-92.3913
0
LINE
8
BLACK
6
CONTINUOUS
10
83.039
20
-92.3913
11
83.0439
21
-92.3762
0
LINE
8
BLACK
6
CONTINUOUS
10
83.0439
20
-92.3762
11
83.0567
21
-92.3669
0
LINE
8
BLACK
6
CONTINUOUS
10
83.0567
20
-92.3669
11
83.066
21
-92.3541
0
LINE
8
BLACK
6
CONTINUOUS
10
83.066
20
-92.3541
11
83.0811
21
-92.3492
0
LINE
8
BLACK
6
CONTINUOUS
10
83.0811
20
-92.3492
11
83.0939
21
-92.3399
0
LINE
8
BLACK
6
CONTINUOUS
10
83.0939
20
-92.3399
11
83.1097
21
-92.3399
0
LINE
8
BLACK
6
CONTINUOUS
10
83.1097
20
-92.3399
11
83.1248
21
-92.335
0
LINE
8
BLACK
6
CONTINUOUS
10
83.1248
20
-92.335
11
85.1248
21
-92.335
0
LINE
8
BLACK
6
CONTINUOUS
10
85.1248
20
-92.335
11
85.1399
21
-92.3399
0
LINE
8
BLACK
6
CONTINUOUS
10
83.2248
20
-92.535
11
83.2248
21
-92.885
0
LINE
8
BLACK
6
CONTINUOUS
10
83.2248
20
-92.885
11
85.0248
21
-92.885
0
LINE
8
BLACK
6
CONTINUOUS
10
85.0248
20
-92.885
11
85.0248
21
-92.535
0
LINE
8
BLACK
6
CONTINUOUS
10
85.0248
20
-92.535
11
83.2248
21
-92.535
0
LINE
8
BLACK
6
CONTINUOUS
10
84.4045
20
-90.4469
11
84.4221
21
-90.4893
0
LINE
8
BLACK
6
CONTINUOUS
10
84.4221
20
-90.4893
11
84.4045
21
-90.5317
0
LINE
8
BLACK
6
CONTINUOUS
10
84.4045
20
-90.5317
11
84.3621
21
-90.5493
0
LINE
8
BLACK
6
CONTINUOUS
10
84.3621
20
-90.5493
11
83.8875
21
-90.5493
0
LINE
8
BLACK
6
CONTINUOUS
10
83.8875
20
-90.5493
11
83.8451
21
-90.5317
0
LINE
8
BLACK
6
CONTINUOUS
10
83.8451
20
-90.5317
11
83.8275
21
-90.4893
0
LINE
8
BLACK
6
CONTINUOUS
10
83.8275
20
-90.4893
11
83.8451
21
-90.4469
0
LINE
8
BLACK
6
CONTINUOUS
10
83.8451
20
-90.4469
11
83.8875
21
-90.4293
0
LINE
8
BLACK
6
CONTINUOUS
10
83.8875
20
-90.4293
11
84.3621
21
-90.4293
0
LINE
8
BLACK
6
CONTINUOUS
10
84.3621
20
-90.4293
11
84.4045
21
-90.4469
0
LINE
8
BLACK
6
CONTINUOUS
10
84.4045
20
-89.4019
11
84.4221
21
-89.4443
0
LINE
8
BLACK
6
CONTINUOUS
10
84.4221
20
-89.4443
11
84.4045
21
-89.4867
0
LINE
8
BLACK
6
CONTINUOUS
10
84.4045
20
-89.4867
11
84.3621
21
-89.5043
0
LINE
8
BLACK
6
CONTINUOUS
10
84.3621
20
-89.5043
11
83.8875
21
-89.5043
0
LINE
8
BLACK
6
CONTINUOUS
10
83.8875
20
-89.5043
11
83.8451
21
-89.4867
0
LINE
8
BLACK
6
CONTINUOUS
10
83.8451
20
-89.4867
11
83.8275
21
-89.4443
0
LINE
8
BLACK
6
CONTINUOUS
10
83.8275
20
-89.4443
11
83.8451
21
-89.4019
0
LINE
8
BLACK
6
CONTINUOUS
10
83.8451
20
-89.4019
11
83.8875
21
-89.3843
0
LINE
8
BLACK
6
CONTINUOUS
10
83.8875
20
-89.3843
11
84.3621
21
-89.3843
0
LINE
8
BLACK
6
CONTINUOUS
10
84.3621
20
-89.3843
11
84.4045
21
-89.4019
0
LINE
8
BLACK
6
CONTINUOUS
10
84.6336
20
-87.8831
11
84.6378
21
-87.8824
0
LINE
8
BLACK
6
CONTINUOUS
10
84.6378
20
-87.8824
11
84.6567
21
-87.8932
0
LINE
8
BLACK
6
CONTINUOUS
10
84.6567
20
-87.8932
11
84.6766
21
-87.902
0
LINE
8
BLACK
6
CONTINUOUS
10
84.6766
20
-87.902
11
84.6785
21
-87.9059
0
LINE
8
BLACK
6
CONTINUOUS
10
84.6785
20
-87.9059
11
84.6823
21
-87.908
0
LINE
8
BLACK
6
CONTINUOUS
10
84.6823
20
-87.908
11
84.6897
21
-87.9285
0
LINE
8
BLACK
6
CONTINUOUS
10
84.6897
20
-87.9285
11
84.6993
21
-87.948
0
LINE
8
BLACK
6
CONTINUOUS
10
84.6993
20
-87.948
11
84.6983
21
-87.9522
0
LINE
8
BLACK
6
CONTINUOUS
10
84.6983
20
-87.9522
11
84.6998
21
-87.9562
0
LINE
8
BLACK
6
CONTINUOUS
10
84.6998
20
-87.9562
11
84.6998
21
-88.8812
0
LINE
8
BLACK
6
CONTINUOUS
10
84.6998
20
-88.8812
11
84.9105
21
-88.8812
0
LINE
8
BLACK
6
CONTINUOUS
10
84.9105
20
-88.8812
11
84.9362
21
-88.8857
0
LINE
8
BLACK
6
CONTINUOUS
10
84.9362
20
-88.8857
11
84.9755
21
-88.9187
0
LINE
8
BLACK
6
CONTINUOUS
10
84.9755
20
-88.9187
11
84.9844
21
-88.9692
0
LINE
8
BLACK
6
CONTINUOUS
10
84.9844
20
-88.9692
11
84.9587
21
-89.0137
0
LINE
8
BLACK
6
CONTINUOUS
10
84.9587
20
-89.0137
11
84.9105
21
-89.0312
0
LINE
8
BLACK
6
CONTINUOUS
10
84.9105
20
-89.0312
11
84.3391
21
-89.0312
0
LINE
8
BLACK
6
CONTINUOUS
10
84.3391
20
-89.0312
11
84.3134
21
-89.0267
0
LINE
8
BLACK
6
CONTINUOUS
10
84.3134
20
-89.0267
11
84.2741
21
-88.9937
0
LINE
8
BLACK
6
CONTINUOUS
10
84.2741
20
-88.9937
11
84.2652
21
-88.9432
0
LINE
8
BLACK
6
CONTINUOUS
10
84.2652
20
-88.9432
11
84.2909
21
-88.8988
0
LINE
8
BLACK
6
CONTINUOUS
10
84.2909
20
-88.8988
11
84.3391
21
-88.8812
0
LINE
8
BLACK
6
CONTINUOUS
10
84.3391
20
-88.8812
11
84.5498
21
-88.8812
0
LINE
8
BLACK
6
CONTINUOUS
10
84.5498
20
-88.8812
11
84.5498
21
-88.1849
0
LINE
8
BLACK
6
CONTINUOUS
10
84.5498
20
-88.1849
11
84.4874
21
-88.2473
0
LINE
8
BLACK
6
CONTINUOUS
10
84.4874
20
-88.2473
11
84.469
21
-88.2602
0
LINE
8
BLACK
6
CONTINUOUS
10
84.469
20
-88.2602
11
84.4679
21
-88.2614
0
LINE
8
BLACK
6
CONTINUOUS
10
84.4679
20
-88.2614
11
84.3726
21
-88.309
0
LINE
8
BLACK
6
CONTINUOUS
10
84.3726
20
-88.309
11
84.3477
21
-88.3164
0
LINE
8
BLACK
6
CONTINUOUS
10
84.3477
20
-88.3164
11
84.2978
21
-88.3045
0
LINE
8
BLACK
6
CONTINUOUS
10
84.2978
20
-88.3045
11
84.2672
21
-88.2633
0
LINE
8
BLACK
6
CONTINUOUS
10
84.2672
20
-88.2633
11
84.2703
21
-88.2121
0
LINE
8
BLACK
6
CONTINUOUS
10
84.2703
20
-88.2121
11
84.3055
21
-88.1749
0
LINE
8
BLACK
6
CONTINUOUS
10
84.3055
20
-88.1749
11
84.3899
21
-88.1327
0
LINE
8
BLACK
6
CONTINUOUS
10
84.3899
20
-88.1327
11
84.4713
21
-88.0513
0
LINE
8
BLACK
6
CONTINUOUS
10
84.4713
20
-88.0513
11
84.5624
21
-87.9146
0
LINE
8
BLACK
6
CONTINUOUS
10
84.5624
20
-87.9146
11
84.5804
21
-87.8958
0
LINE
8
BLACK
6
CONTINUOUS
10
84.5804
20
-87.8958
11
84.5845
21
-87.8946
0
LINE
8
BLACK
6
CONTINUOUS
10
84.5845
20
-87.8946
11
84.5873
21
-87.8913
0
LINE
8
BLACK
6
CONTINUOUS
10
84.5873
20
-87.8913
11
84.6087
21
-87.8875
0
LINE
8
BLACK
6
CONTINUOUS
10
84.6087
20
-87.8875
11
84.6296
21
-87.8814
0
LINE
8
BLACK
6
CONTINUOUS
10
84.6296
20
-87.8814
11
84.6336
21
-87.8831
0
LINE
8
BLACK
6
CONTINUOUS
10
83.7933
20
-87.8857
11
83.7967
21
-87.8886
0
LINE
8
BLACK
6
CONTINUOUS
10
83.7967
20
-87.8886
11
83.8012
21
-87.8891
0
LINE
8
BLACK
6
CONTINUOUS
10
83.8012
20
-87.8891
11
83.8964
21
-87.9368
0
LINE
8
BLACK
6
CONTINUOUS
10
83.8964
20
-87.9368
11
83.9144
21
-87.9501
0
LINE
8
BLACK
6
CONTINUOUS
10
83.9144
20
-87.9501
11
83.9159
21
-87.9508
0
LINE
8
BLACK
6
CONTINUOUS
10
83.9159
20
-87.9508
11
83.9635
21
-87.9984
0
LINE
8
BLACK
6
CONTINUOUS
10
83.9635
20
-87.9984
11
83.9764
21
-88.0168
0
LINE
8
BLACK
6
CONTINUOUS
10
83.9764
20
-88.0168
11
83.9776
21
-88.0179
0
LINE
8
BLACK
6
CONTINUOUS
10
83.9776
20
-88.0179
11
84.0252
21
-88.1132
0
LINE
8
BLACK
6
CONTINUOUS
10
84.0252
20
-88.1132
11
84.0326
21
-88.1381
0
LINE
8
BLACK
6
CONTINUOUS
10
84.0326
20
-88.1381
11
84.0316
21
-88.1425
0
LINE
8
BLACK
6
CONTINUOUS
10
84.0316
20
-88.1425
11
84.0331
21
-88.1467
0
LINE
8
BLACK
6
CONTINUOUS
10
84.0331
20
-88.1467
11
84.0331
21
-88.2896
0
LINE
8
BLACK
6
CONTINUOUS
10
84.0331
20
-88.2896
11
84.0286
21
-88.3152
0
LINE
8
BLACK
6
CONTINUOUS
10
84.0286
20
-88.3152
11
84.0257
21
-88.3186
0
LINE
8
BLACK
6
CONTINUOUS
10
84.0257
20
-88.3186
11
84.0252
21
-88.3231
0
LINE
8
BLACK
6
CONTINUOUS
10
84.0252
20
-88.3231
11
83.9776
21
-88.4183
0
LINE
8
BLACK
6
CONTINUOUS
10
83.9776
20
-88.4183
11
83.9642
21
-88.4363
0
LINE
8
BLACK
6
CONTINUOUS
10
83.9642
20
-88.4363
11
83.9635
21
-88.4378
0
LINE
8
BLACK
6
CONTINUOUS
10
83.9635
20
-88.4378
11
83.9159
21
-88.4854
0
LINE
8
BLACK
6
CONTINUOUS
10
83.9159
20
-88.4854
11
83.8976
21
-88.4983
0
LINE
8
BLACK
6
CONTINUOUS
10
83.8976
20
-88.4983
11
83.8964
21
-88.4995
0
LINE
8
BLACK
6
CONTINUOUS
10
83.8964
20
-88.4995
11
83.8012
21
-88.5471
0
LINE
8
BLACK
6
CONTINUOUS
10
83.8012
20
-88.5471
11
83.7762
21
-88.5545
0
LINE
8
BLACK
6
CONTINUOUS
10
83.7762
20
-88.5545
11
83.7719
21
-88.5535
0
LINE
8
BLACK
6
CONTINUOUS
10
83.7719
20
-88.5535
11
83.7686
21
-88.5547
0
LINE
8
BLACK
6
CONTINUOUS
10
83.7686
20
-88.5547
11
84.0196
21
-88.9132
0
LINE
8
BLACK
6
CONTINUOUS
10
84.0196
20
-88.9132
11
84.0306
21
-88.9368
0
LINE
8
BLACK
6
CONTINUOUS
10
84.0306
20
-88.9368
11
84.0261
21
-88.9879
0
LINE
8
BLACK
6
CONTINUOUS
10
84.0261
20
-88.9879
11
83.9898
21
-89.0242
0
LINE
8
BLACK
6
CONTINUOUS
10
83.9898
20
-89.0242
11
83.9387
21
-89.0287
0
LINE
8
BLACK
6
CONTINUOUS
10
83.9387
20
-89.0287
11
83.8967
21
-88.9992
0
LINE
8
BLACK
6
CONTINUOUS
10
83.8967
20
-88.9992
11
83.5858
21
-88.555
0
LINE
8
BLACK
6
CONTINUOUS
10
83.5858
20
-88.555
11
83.4617
21
-88.555
0
LINE
8
BLACK
6
CONTINUOUS
10
83.4617
20
-88.555
11
83.4617
21
-88.9562
0
LINE
8
BLACK
6
CONTINUOUS
10
83.4617
20
-88.9562
11
83.4572
21
-88.9819
0
LINE
8
BLACK
6
CONTINUOUS
10
83.4572
20
-88.9819
11
83.4242
21
-89.0212
0
LINE
8
BLACK
6
CONTINUOUS
10
83.4242
20
-89.0212
11
83.3737
21
-89.0301
0
LINE
8
BLACK
6
CONTINUOUS
10
83.3737
20
-89.0301
11
83.3293
21
-89.0044
0
LINE
8
BLACK
6
CONTINUOUS
10
83.3293
20
-89.0044
11
83.3117
21
-88.9562
0
LINE
8
BLACK
6
CONTINUOUS
10
83.3117
20
-88.9562
11
83.3117
21
-87.9562
0
LINE
8
BLACK
6
CONTINUOUS
10
83.3117
20
-87.9562
11
83.3134
21
-87.9465
0
LINE
8
BLACK
6
CONTINUOUS
10
83.3134
20
-87.9465
11
83.3128
21
-87.9432
0
LINE
8
BLACK
6
CONTINUOUS
10
83.3128
20
-87.9432
11
83.3145
21
-87.9403
0
LINE
8
BLACK
6
CONTINUOUS
10
83.3145
20
-87.9403
11
83.3162
21
-87.9306
0
LINE
8
BLACK
6
CONTINUOUS
10
83.3162
20
-87.9306
11
83.3288
21
-87.9156
0
LINE
8
BLACK
6
CONTINUOUS
10
83.3288
20
-87.9156
11
83.3385
21
-87.8988
0
LINE
8
BLACK
6
CONTINUOUS
10
83.3385
20
-87.8988
11
83.3449
21
-87.8965
0
LINE
8
BLACK
6
CONTINUOUS
10
83.3449
20
-87.8965
11
83.3492
21
-87.8913
0
LINE
8
BLACK
6
CONTINUOUS
10
83.3492
20
-87.8913
11
83.3684
21
-87.8879
0
LINE
8
BLACK
6
CONTINUOUS
10
83.3684
20
-87.8879
11
83.3867
21
-87.8812
0
LINE
8
BLACK
6
CONTINUOUS
10
83.3867
20
-87.8812
11
83.7677
21
-87.8812
0
LINE
8
BLACK
6
CONTINUOUS
10
83.7677
20
-87.8812
11
83.7933
21
-87.8857
0
LINE
8
BLACK
6
CONTINUOUS
10
83.4617
20
-88.405
11
83.75
21
-88.405
0
LINE
8
BLACK
6
CONTINUOUS
10
83.75
20
-88.405
11
83.8185
21
-88.3708
0
LINE
8
BLACK
6
CONTINUOUS
10
83.8185
20
-88.3708
11
83.8489
21
-88.3404
0
LINE
8
BLACK
6
CONTINUOUS
10
83.8489
20
-88.3404
11
83.8831
21
-88.2718
0
LINE
8
BLACK
6
CONTINUOUS
10
83.8831
20
-88.2718
11
83.8831
21
-88.1644
0
LINE
8
BLACK
6
CONTINUOUS
10
83.8831
20
-88.1644
11
83.8489
21
-88.0959
0
LINE
8
BLACK
6
CONTINUOUS
10
83.8489
20
-88.0959
11
83.8185
21
-88.0655
0
LINE
8
BLACK
6
CONTINUOUS
10
83.8185
20
-88.0655
11
83.75
21
-88.0312
0
LINE
8
BLACK
6
CONTINUOUS
10
83.75
20
-88.0312
11
83.4617
21
-88.0312
0
LINE
8
BLACK
6
CONTINUOUS
10
83.4617
20
-88.0312
11
83.4617
21
-88.405
0
LINE
8
BLACK
6
CONTINUOUS
10
90.1864
20
-85.5777
11
90.1883
21
-85.5772
0
LINE
8
BLACK
6
CONTINUOUS
10
90.1883
20
-85.5772
11
90.1913
21
-85.5786
0
LINE
8
BLACK
6
CONTINUOUS
10
90.1913
20
-85.5786
11
90.2074
21
-85.5814
0
LINE
8
BLACK
6
CONTINUOUS
10
90.2074
20
-85.5814
11
90.22
21
-85.5919
0
LINE
8
BLACK
6
CONTINUOUS
10
90.22
20
-85.5919
11
90.2348
21
-85.5989
0
LINE
8
BLACK
6
CONTINUOUS
10
90.2348
20
-85.5989
11
90.2824
21
-85.6465
0
LINE
8
BLACK
6
CONTINUOUS
10
90.2824
20
-85.6465
11
90.2974
21
-85.6678
0
LINE
8
BLACK
6
CONTINUOUS
10
90.2974
20
-85.6678
11
90.2978
21
-85.6723
0
LINE
8
BLACK
6
CONTINUOUS
10
90.2978
20
-85.6723
11
90.3006
21
-85.6758
0
LINE
8
BLACK
6
CONTINUOUS
10
90.3006
20
-85.6758
11
90.3482
21
-85.8186
0
LINE
8
BLACK
6
CONTINUOUS
10
90.3482
20
-85.8186
11
90.3515
21
-85.8408
0
LINE
8
BLACK
6
CONTINUOUS
10
90.3515
20
-85.8408
11
90.352
21
-85.8424
0
LINE
8
BLACK
6
CONTINUOUS
10
90.352
20
-85.8424
11
90.352
21
-85.9376
0
LINE
8
BLACK
6
CONTINUOUS
10
90.352
20
-85.9376
11
90.3481
21
-85.9597
0
LINE
8
BLACK
6
CONTINUOUS
10
90.3481
20
-85.9597
11
90.3482
21
-85.9613
0
LINE
8
BLACK
6
CONTINUOUS
10
90.3482
20
-85.9613
11
90.3006
21
-86.1042
0
LINE
8
BLACK
6
CONTINUOUS
10
90.3006
20
-86.1042
11
90.2881
21
-86.1271
0
LINE
8
BLACK
6
CONTINUOUS
10
90.2881
20
-86.1271
11
90.2843
21
-86.1294
0
LINE
8
BLACK
6
CONTINUOUS
10
90.2843
20
-86.1294
11
90.2824
21
-86.1335
0
LINE
8
BLACK
6
CONTINUOUS
10
90.2824
20
-86.1335
11
90.1872
21
-86.2287
0
LINE
8
BLACK
6
CONTINUOUS
10
90.1872
20
-86.2287
11
90.1688
21
-86.2416
0
LINE
8
BLACK
6
CONTINUOUS
10
90.1688
20
-86.2416
11
90.1677
21
-86.2428
0
LINE
8
BLACK
6
CONTINUOUS
10
90.1677
20
-86.2428
11
90.0725
21
-86.2904
0
LINE
8
BLACK
6
CONTINUOUS
10
90.0725
20
-86.2904
11
90.0601
21
-86.2941
0
LINE
8
BLACK
6
CONTINUOUS
10
90.0601
20
-86.2941
11
90.0571
21
-86.2961
0
LINE
8
BLACK
6
CONTINUOUS
10
90.0571
20
-86.2961
11
89.8666
21
-86.3437
0
LINE
8
BLACK
6
CONTINUOUS
10
89.8666
20
-86.3437
11
89.8517
21
-86.3447
0
LINE
8
BLACK
6
CONTINUOUS
10
89.8517
20
-86.3447
11
89.8484
21
-86.3459
0
LINE
8
BLACK
6
CONTINUOUS
10
89.8484
20
-86.3459
11
89.7056
21
-86.3459
0
LINE
8
BLACK
6
CONTINUOUS
10
89.7056
20
-86.3459
11
89.6908
21
-86.3433
0
LINE
8
BLACK
6
CONTINUOUS
10
89.6908
20
-86.3433
11
89.6874
21
-86.3437
0
LINE
8
BLACK
6
CONTINUOUS
10
89.6874
20
-86.3437
11
89.4969
21
-86.2961
0
LINE
8
BLACK
6
CONTINUOUS
10
89.4969
20
-86.2961
11
89.4851
21
-86.2908
0
LINE
8
BLACK
6
CONTINUOUS
10
89.4851
20
-86.2908
11
89.4816
21
-86.2904
0
LINE
8
BLACK
6
CONTINUOUS
10
89.4816
20
-86.2904
11
89.3863
21
-86.2428
0
LINE
8
BLACK
6
CONTINUOUS
10
89.3863
20
-86.2428
11
89.3683
21
-86.2294
0
LINE
8
BLACK
6
CONTINUOUS
10
89.3683
20
-86.2294
11
89.3668
21
-86.2287
0
LINE
8
BLACK
6
CONTINUOUS
10
89.3668
20
-86.2287
11
89.2716
21
-86.1335
0
LINE
8
BLACK
6
CONTINUOUS
10
89.2716
20
-86.1335
11
89.2567
21
-86.1122
0
LINE
8
BLACK
6
CONTINUOUS
10
89.2567
20
-86.1122
11
89.2563
21
-86.1077
0
LINE
8
BLACK
6
CONTINUOUS
10
89.2563
20
-86.1077
11
89.2535
21
-86.1042
0
LINE
8
BLACK
6
CONTINUOUS
10
89.2535
20
-86.1042
11
89.2059
21
-85.9613
0
LINE
8
BLACK
6
CONTINUOUS
10
89.2059
20
-85.9613
11
89.2026
21
-85.9391
0
LINE
8
BLACK
6
CONTINUOUS
10
89.2026
20
-85.9391
11
89.202
21
-85.9376
0
LINE
8
BLACK
6
CONTINUOUS
10
89.202
20
-85.9376
11
89.202
21
-85.7947
0
LINE
8
BLACK
6
CONTINUOUS
10
89.202
20
-85.7947
11
89.2065
21
-85.7691
0
LINE
8
BLACK
6
CONTINUOUS
10
89.2065
20
-85.7691
11
89.2094
21
-85.7657
0
LINE
8
BLACK
6
CONTINUOUS
10
89.2094
20
-85.7657
11
89.2099
21
-85.7612
0
LINE
8
BLACK
6
CONTINUOUS
10
89.2099
20
-85.7612
11
89.2576
21
-85.666
0
LINE
8
BLACK
6
CONTINUOUS
10
89.2576
20
-85.666
11
89.2731
21
-85.645
0
LINE
8
BLACK
6
CONTINUOUS
10
89.2731
20
-85.645
11
89.3201
21
-85.6246
0
LINE
8
BLACK
6
CONTINUOUS
10
89.3201
20
-85.6246
11
89.3693
21
-85.6393
0
LINE
8
BLACK
6
CONTINUOUS
10
89.3693
20
-85.6393
11
89.3976
21
-85.6821
0
LINE
8
BLACK
6
CONTINUOUS
10
89.3976
20
-85.6821
11
89.3917
21
-85.733
0
LINE
8
BLACK
6
CONTINUOUS
10
89.3917
20
-85.733
11
89.352
21
-85.8124
0
LINE
8
BLACK
6
CONTINUOUS
10
89.352
20
-85.8124
11
89.352
21
-85.9254
0
LINE
8
BLACK
6
CONTINUOUS
10
89.352
20
-85.9254
11
89.3902
21
-86.0399
0
LINE
8
BLACK
6
CONTINUOUS
10
89.3902
20
-86.0399
11
89.4643
21
-86.1141
0
LINE
8
BLACK
6
CONTINUOUS
10
89.4643
20
-86.1141
11
89.5413
21
-86.1525
0
LINE
8
BLACK
6
CONTINUOUS
10
89.5413
20
-86.1525
11
89.7148
21
-86.1959
0
LINE
8
BLACK
6
CONTINUOUS
10
89.7148
20
-86.1959
11
89.8392
21
-86.1959
0
LINE
8
BLACK
6
CONTINUOUS
10
89.8392
20
-86.1959
11
90.0127
21
-86.1525
0
LINE
8
BLACK
6
CONTINUOUS
10
90.0127
20
-86.1525
11
90.0897
21
-86.1141
0
LINE
8
BLACK
6
CONTINUOUS
10
90.0897
20
-86.1141
11
90.1638
21
-86.0399
0
LINE
8
BLACK
6
CONTINUOUS
10
90.1638
20
-86.0399
11
90.202
21
-85.9254
0
LINE
8
BLACK
6
CONTINUOUS
10
90.202
20
-85.9254
11
90.202
21
-85.8545
0
LINE
8
BLACK
6
CONTINUOUS
10
90.202
20
-85.8545
11
90.1638
21
-85.74
0
LINE
8
BLACK
6
CONTINUOUS
10
90.1638
20
-85.74
11
90.1507
21
-85.7269
0
LINE
8
BLACK
6
CONTINUOUS
10
90.1507
20
-85.7269
11
89.9234
21
-85.7269
0
LINE
8
BLACK
6
CONTINUOUS
10
89.9234
20
-85.7269
11
89.9234
21
-85.8424
0
LINE
8
BLACK
6
CONTINUOUS
10
89.9234
20
-85.8424
11
89.9189
21
-85.868
0
LINE
8
BLACK
6
CONTINUOUS
10
89.9189
20
-85.868
11
89.8859
21
-85.9073
0
LINE
8
BLACK
6
CONTINUOUS
10
89.8859
20
-85.9073
11
89.8354
21
-85.9162
0
LINE
8
BLACK
6
CONTINUOUS
10
89.8354
20
-85.9162
11
89.791
21
-85.8906
0
LINE
8
BLACK
6
CONTINUOUS
10
89.791
20
-85.8906
11
89.7734
21
-85.8424
0
LINE
8
BLACK
6
CONTINUOUS
10
89.7734
20
-85.8424
11
89.7734
21
-85.6519
0
LINE
8
BLACK
6
CONTINUOUS
10
89.7734
20
-85.6519
11
89.7752
21
-85.6421
0
LINE
8
BLACK
6
CONTINUOUS
10
89.7752
20
-85.6421
11
89.7746
21
-85.6389
0
LINE
8
BLACK
6
CONTINUOUS
10
89.7746
20
-85.6389
11
89.7763
21
-85.636
0
LINE
8
BLACK
6
CONTINUOUS
10
89.7763
20
-85.636
11
89.778
21
-85.6262
0
LINE
8
BLACK
6
CONTINUOUS
10
89.778
20
-85.6262
11
89.7905
21
-85.6113
0
LINE
8
BLACK
6
CONTINUOUS
10
89.7905
20
-85.6113
11
89.8002
21
-85.5944
0
LINE
8
BLACK
6
CONTINUOUS
10
89.8002
20
-85.5944
11
89.8066
21
-85.5921
0
LINE
8
BLACK
6
CONTINUOUS
10
89.8066
20
-85.5921
11
89.8109
21
-85.5869
0
LINE
8
BLACK
6
CONTINUOUS
10
89.8109
20
-85.5869
11
89.8301
21
-85.5835
0
LINE
8
BLACK
6
CONTINUOUS
10
89.8301
20
-85.5835
11
89.8484
21
-85.5769
0
LINE
8
BLACK
6
CONTINUOUS
10
89.8484
20
-85.5769
11
90.1818
21
-85.5769
0
LINE
8
BLACK
6
CONTINUOUS
10
90.1818
20
-85.5769
11
90.1864
21
-85.5777
0
LINE
8
BLACK
6
CONTINUOUS
10
90.3027
20
-84.5814
11
90.308
21
-84.5859
0
LINE
8
BLACK
6
CONTINUOUS
10
90.308
20
-84.5859
11
90.3148
21
-84.5871
0
LINE
8
BLACK
6
CONTINUOUS
10
90.3148
20
-84.5871
11
90.3272
21
-84.602
0
LINE
8
BLACK
6
CONTINUOUS
10
90.3272
20
-84.602
11
90.342
21
-84.6144
0
LINE
8
BLACK
6
CONTINUOUS
10
90.342
20
-84.6144
11
90.3432
21
-84.6212
0
LINE
8
BLACK
6
CONTINUOUS
10
90.3432
20
-84.6212
11
90.3476
21
-84.6265
0
LINE
8
BLACK
6
CONTINUOUS
10
90.3476
20
-84.6265
11
90.3475
21
-84.6459
0
LINE
8
BLACK
6
CONTINUOUS
10
90.3475
20
-84.6459
11
90.3509
21
-84.6649
0
LINE
8
BLACK
6
CONTINUOUS
10
90.3509
20
-84.6649
11
90.3474
21
-84.6709
0
LINE
8
BLACK
6
CONTINUOUS
10
90.3474
20
-84.6709
11
90.3474
21
-84.6778
0
LINE
8
BLACK
6
CONTINUOUS
10
90.3474
20
-84.6778
11
90.3349
21
-84.6926
0
LINE
8
BLACK
6
CONTINUOUS
10
90.3349
20
-84.6926
11
90.3252
21
-84.7093
0
LINE
8
BLACK
6
CONTINUOUS
10
90.3252
20
-84.7093
11
90.3187
21
-84.7117
0
LINE
8
BLACK
6
CONTINUOUS
10
90.3187
20
-84.7117
11
90.3142
21
-84.717
0
LINE
8
BLACK
6
CONTINUOUS
10
90.3142
20
-84.717
11
89.5594
21
-85.1483
0
LINE
8
BLACK
6
CONTINUOUS
10
89.5594
20
-85.1483
11
90.277
21
-85.1483
0
LINE
8
BLACK
6
CONTINUOUS
10
90.277
20
-85.1483
11
90.3027
21
-85.1528
0
LINE
8
BLACK
6
CONTINUOUS
10
90.3027
20
-85.1528
11
90.342
21
-85.1858
0
LINE
8
BLACK
6
CONTINUOUS
10
90.342
20
-85.1858
11
90.3509
21
-85.2363
0
LINE
8
BLACK
6
CONTINUOUS
10
90.3509
20
-85.2363
11
90.3252
21
-85.2808
0
LINE
8
BLACK
6
CONTINUOUS
10
90.3252
20
-85.2808
11
90.277
21
-85.2983
0
LINE
8
BLACK
6
CONTINUOUS
10
90.277
20
-85.2983
11
89.277
21
-85.2983
0
LINE
8
BLACK
6
CONTINUOUS
10
89.277
20
-85.2983
11
89.2514
21
-85.2938
0
LINE
8
BLACK
6
CONTINUOUS
10
89.2514
20
-85.2938
11
89.2461
21
-85.2893
0
LINE
8
BLACK
6
CONTINUOUS
10
89.2461
20
-85.2893
11
89.2392
21
-85.2881
0
LINE
8
BLACK
6
CONTINUOUS
10
89.2392
20
-85.2881
11
89.2269
21
-85.2732
0
LINE
8
BLACK
6
CONTINUOUS
10
89.2269
20
-85.2732
11
89.2121
21
-85.2608
0
LINE
8
BLACK
6
CONTINUOUS
10
89.2121
20
-85.2608
11
89.2109
21
-85.254
0
LINE
8
BLACK
6
CONTINUOUS
10
89.2109
20
-85.254
11
89.2064
21
-85.2486
0
LINE
8
BLACK
6
CONTINUOUS
10
89.2064
20
-85.2486
11
89.2065
21
-85.2293
0
LINE
8
BLACK
6
CONTINUOUS
10
89.2065
20
-85.2293
11
89.2032
21
-85.2103
0
LINE
8
BLACK
6
CONTINUOUS
10
89.2032
20
-85.2103
11
89.2066
21
-85.2043
0
LINE
8
BLACK
6
CONTINUOUS
10
89.2066
20
-85.2043
11
89.2067
21
-85.1973
0
LINE
8
BLACK
6
CONTINUOUS
10
89.2067
20
-85.1973
11
89.2191
21
-85.1826
0
LINE
8
BLACK
6
CONTINUOUS
10
89.2191
20
-85.1826
11
89.2288
21
-85.1659
0
LINE
8
BLACK
6
CONTINUOUS
10
89.2288
20
-85.1659
11
89.2353
21
-85.1635
0
LINE
8
BLACK
6
CONTINUOUS
10
89.2353
20
-85.1635
11
89.2398
21
-85.1582
0
LINE
8
BLACK
6
CONTINUOUS
10
89.2398
20
-85.1582
11
89.9946
21
-84.7269
0
LINE
8
BLACK
6
CONTINUOUS
10
89.9946
20
-84.7269
11
89.277
21
-84.7269
0
LINE
8
BLACK
6
CONTINUOUS
10
89.277
20
-84.7269
11
89.2514
21
-84.7224
0
LINE
8
BLACK
6
CONTINUOUS
10
89.2514
20
-84.7224
11
89.2121
21
-84.6894
0
LINE
8
BLACK
6
CONTINUOUS
10
89.2121
20
-84.6894
11
89.2032
21
-84.6389
0
LINE
8
BLACK
6
CONTINUOUS
10
89.2032
20
-84.6389
11
89.2288
21
-84.5944
0
LINE
8
BLACK
6
CONTINUOUS
10
89.2288
20
-84.5944
11
89.277
21
-84.5769
0
LINE
8
BLACK
6
CONTINUOUS
10
89.277
20
-84.5769
11
90.277
21
-84.5769
0
LINE
8
BLACK
6
CONTINUOUS
10
90.277
20
-84.5769
11
90.3027
21
-84.5814
0
LINE
8
BLACK
6
CONTINUOUS
10
89.8632
20
-83.5319
11
89.8666
21
-83.5315
0
LINE
8
BLACK
6
CONTINUOUS
10
89.8666
20
-83.5315
11
90.0571
21
-83.5791
0
LINE
8
BLACK
6
CONTINUOUS
10
90.0571
20
-83.5791
11
90.0689
21
-83.5844
0
LINE
8
BLACK
6
CONTINUOUS
10
90.0689
20
-83.5844
11
90.0725
21
-83.5848
0
LINE
8
BLACK
6
CONTINUOUS
10
90.0725
20
-83.5848
11
90.1677
21
-83.6324
0
LINE
8
BLACK
6
CONTINUOUS
10
90.1677
20
-83.6324
11
90.1857
21
-83.6458
0
LINE
8
BLACK
6
CONTINUOUS
10
90.1857
20
-83.6458
11
90.1872
21
-83.6465
0
LINE
8
BLACK
6
CONTINUOUS
10
90.1872
20
-83.6465
11
90.2824
21
-83.7417
0
LINE
8
BLACK
6
CONTINUOUS
10
90.2824
20
-83.7417
11
90.2974
21
-83.763
0
LINE
8
BLACK
6
CONTINUOUS
10
90.2974
20
-83.763
11
90.2978
21
-83.7675
0
LINE
8
BLACK
6
CONTINUOUS
10
90.2978
20
-83.7675
11
90.3006
21
-83.771
0
LINE
8
BLACK
6
CONTINUOUS
10
90.3006
20
-83.771
11
90.3482
21
-83.9139
0
LINE
8
BLACK
6
CONTINUOUS
10
90.3482
20
-83.9139
11
90.3515
21
-83.9361
0
LINE
8
BLACK
6
CONTINUOUS
10
90.3515
20
-83.9361
11
90.352
21
-83.9376
0
LINE
8
BLACK
6
CONTINUOUS
10
90.352
20
-83.9376
11
90.352
21
-84.1757
0
LINE
8
BLACK
6
CONTINUOUS
10
90.352
20
-84.1757
11
90.3503
21
-84.1854
0
LINE
8
BLACK
6
CONTINUOUS
10
90.3503
20
-84.1854
11
90.3509
21
-84.1887
0
LINE
8
BLACK
6
CONTINUOUS
10
90.3509
20
-84.1887
11
90.3492
21
-84.1916
0
LINE
8
BLACK
6
CONTINUOUS
10
90.3492
20
-84.1916
11
90.3475
21
-84.2013
0
LINE
8
BLACK
6
CONTINUOUS
10
90.3475
20
-84.2013
11
90.335
21
-84.2163
0
LINE
8
BLACK
6
CONTINUOUS
10
90.335
20
-84.2163
11
90.3252
21
-84.2331
0
LINE
8
BLACK
6
CONTINUOUS
10
90.3252
20
-84.2331
11
90.3189
21
-84.2355
0
LINE
8
BLACK
6
CONTINUOUS
10
90.3189
20
-84.2355
11
90.3145
21
-84.2406
0
LINE
8
BLACK
6
CONTINUOUS
10
90.3145
20
-84.2406
11
90.2953
21
-84.244
0
LINE
8
BLACK
6
CONTINUOUS
10
90.2953
20
-84.244
11
90.277
21
-84.2507
0
LINE
8
BLACK
6
CONTINUOUS
10
90.277
20
-84.2507
11
89.277
21
-84.2507
0
LINE
8
BLACK
6
CONTINUOUS
10
89.277
20
-84.2507
11
89.2673
21
-84.249
0
LINE
8
BLACK
6
CONTINUOUS
10
89.2673
20
-84.249
11
89.264
21
-84.2496
0
LINE
8
BLACK
6
CONTINUOUS
10
89.264
20
-84.2496
11
89.2611
21
-84.2479
0
LINE
8
BLACK
6
CONTINUOUS
10
89.2611
20
-84.2479
11
89.2514
21
-84.2462
0
LINE
8
BLACK
6
CONTINUOUS
10
89.2514
20
-84.2462
11
89.2364
21
-84.2336
0
LINE
8
BLACK
6
CONTINUOUS
10
89.2364
20
-84.2336
11
89.2196
21
-84.2239
0
LINE
8
BLACK
6
CONTINUOUS
10
89.2196
20
-84.2239
11
89.2173
21
-84.2175
0
LINE
8
BLACK
6
CONTINUOUS
10
89.2173
20
-84.2175
11
89.2121
21
-84.2132
0
LINE
8
BLACK
6
CONTINUOUS
10
89.2121
20
-84.2132
11
89.2087
21
-84.194
0
LINE
8
BLACK
6
CONTINUOUS
10
89.2087
20
-84.194
11
89.202
21
-84.1757
0
LINE
8
BLACK
6
CONTINUOUS
10
89.202
20
-84.1757
11
89.202
21
-83.9376
0
LINE
8
BLACK
6
CONTINUOUS
10
89.202
20
-83.9376
11
89.2059
21
-83.9155
0
LINE
8
BLACK
6
CONTINUOUS
10
89.2059
20
-83.9155
11
89.2059
21
-83.9139
0
LINE
8
BLACK
6
CONTINUOUS
10
89.2059
20
-83.9139
11
89.2535
21
-83.771
0
LINE
8
BLACK
6
CONTINUOUS
10
89.2535
20
-83.771
11
89.2659
21
-83.7481
0
LINE
8
BLACK
6
CONTINUOUS
10
89.2659
20
-83.7481
11
89.2697
21
-83.7458
0
LINE
8
BLACK
6
CONTINUOUS
10
89.2697
20
-83.7458
11
89.2716
21
-83.7417
0
LINE
8
BLACK
6
CONTINUOUS
10
89.2716
20
-83.7417
11
89.3668
21
-83.6465
0
LINE
8
BLACK
6
CONTINUOUS
10
89.3668
20
-83.6465
11
89.3852
21
-83.6336
0
LINE
8
BLACK
6
CONTINUOUS
10
89.3852
20
-83.6336
11
89.3863
21
-83.6324
0
LINE
8
BLACK
6
CONTINUOUS
10
89.3863
20
-83.6324
11
89.4816
21
-83.5848
0
LINE
8
BLACK
6
CONTINUOUS
10
89.4816
20
-83.5848
11
89.494
21
-83.5811
0
LINE
8
BLACK
6
CONTINUOUS
10
89.494
20
-83.5811
11
89.4969
21
-83.5791
0
LINE
8
BLACK
6
CONTINUOUS
10
89.4969
20
-83.5791
11
89.6874
21
-83.5315
0
LINE
8
BLACK
6
CONTINUOUS
10
89.6874
20
-83.5315
11
89.7023
21
-83.5305
0
LINE
8
BLACK
6
CONTINUOUS
10
89.7023
20
-83.5305
11
89.7056
21
-83.5293
0
LINE
8
BLACK
6
CONTINUOUS
10
89.7056
20
-83.5293
11
89.8484
21
-83.5293
0
LINE
8
BLACK
6
CONTINUOUS
10
89.8484
20
-83.5293
11
89.8632
21
-83.5319
0
LINE
8
BLACK
6
CONTINUOUS
10
89.7148
20
-83.6793
11
89.5413
21
-83.7226
0
LINE
8
BLACK
6
CONTINUOUS
10
89.5413
20
-83.7226
11
89.4643
21
-83.7611
0
LINE
8
BLACK
6
CONTINUOUS
10
89.4643
20
-83.7611
11
89.3902
21
-83.8353
0
LINE
8
BLACK
6
CONTINUOUS
10
89.3902
20
-83.8353
11
89.352
21
-83.9498
0
LINE
8
BLACK
6
CONTINUOUS
10
89.352
20
-83.9498
11
89.352
21
-84.1007
0
LINE
8
BLACK
6
CONTINUOUS
10
89.352
20
-84.1007
11
90.202
21
-84.1007
0
LINE
8
BLACK
6
CONTINUOUS
10
90.202
20
-84.1007
11
90.202
21
-83.9498
0
LINE
8
BLACK
6
CONTINUOUS
10
90.202
20
-83.9498
11
90.1638
21
-83.8353
0
LINE
8
BLACK
6
CONTINUOUS
10
90.1638
20
-83.8353
11
90.0897
21
-83.7611
0
LINE
8
BLACK
6
CONTINUOUS
10
90.0897
20
-83.7611
11
90.0127
21
-83.7226
0
LINE
8
BLACK
6
CONTINUOUS
10
90.0127
20
-83.7226
11
89.8392
21
-83.6793
0
LINE
8
BLACK
6
CONTINUOUS
10
89.8392
20
-83.6793
11
89.7148
21
-83.6793
  0
ENDSEC
  0
EOF
